<svg width="12" height="8" viewBox="0 0 12 8" fill="none" xmlns="http://www.w3.org/2000/svg">
<path d="M10.7828 1.16994C10.5868 0.983692 10.3217 0.87915 10.0454 0.87915C9.76901 0.87915 9.50389 0.983692 9.30789 1.16994L5.55257 4.70994L1.84954 1.16994C1.65355 0.983692 1.38843 0.87915 1.11207 0.87915C0.835721 0.87915 0.570597 0.983692 0.374606 1.16994C0.276561 1.26291 0.198741 1.37351 0.145634 1.49537C0.0925273 1.61723 0.0651855 1.74793 0.0651855 1.87994C0.0651855 2.01195 0.0925273 2.14266 0.145634 2.26452C0.198741 2.38638 0.276561 2.49698 0.374606 2.58994L4.80987 6.82994C4.90711 6.92367 5.02281 6.99806 5.15028 7.04883C5.27775 7.0996 5.41447 7.12574 5.55257 7.12574C5.69066 7.12574 5.82738 7.0996 5.95485 7.04883C6.08232 6.99806 6.19802 6.92367 6.29526 6.82994L10.7828 2.58994C10.8809 2.49698 10.9587 2.38638 11.0118 2.26452C11.0649 2.14266 11.0923 2.01195 11.0923 1.87994C11.0923 1.74793 11.0649 1.61723 11.0118 1.49537C10.9587 1.37351 10.8809 1.26291 10.7828 1.16994Z" fill="#4B492B"/>
</svg>
