<svg width="15" height="14" viewBox="0 0 15 14" fill="none" xmlns="http://www.w3.org/2000/svg">
<path d="M7.49992 13.6666C3.81792 13.6666 0.833252 10.6819 0.833252 6.99992C0.833252 3.31792 3.81792 0.333252 7.49992 0.333252C11.1819 0.333252 14.1666 3.31792 14.1666 6.99992C14.1666 10.6819 11.1819 13.6666 7.49992 13.6666ZM7.49992 12.3333C8.91441 12.3333 10.271 11.7713 11.2712 10.7712C12.2713 9.77096 12.8333 8.41441 12.8333 6.99992C12.8333 5.58543 12.2713 4.22888 11.2712 3.22868C10.271 2.22849 8.91441 1.66659 7.49992 1.66659C6.08543 1.66659 4.72888 2.22849 3.72868 3.22868C2.72849 4.22888 2.16659 5.58543 2.16659 6.99992C2.16659 8.41441 2.72849 9.77096 3.72868 10.7712C4.72888 11.7713 6.08543 12.3333 7.49992 12.3333ZM7.49992 6.05725L9.38525 4.17125L10.3286 5.11459L8.44258 6.99992L10.3286 8.88525L9.38525 9.82859L7.49992 7.94258L5.61459 9.82859L4.67125 8.88525L6.55725 6.99992L4.67125 5.11459L5.61459 4.17125L7.49992 6.05725Z" fill="#0A0903"/>
</svg>
