<svg width="14" height="14" viewBox="0 0 14 14" fill="none" xmlns="http://www.w3.org/2000/svg">
<path d="M2.64192 1.95526C3.85162 0.907032 5.39924 0.331025 6.99992 0.333258C10.6819 0.333258 13.6666 3.31793 13.6666 6.99993C13.6666 8.42393 13.2199 9.74393 12.4599 10.8266L10.3333 6.99993H12.3333C12.3333 5.95434 12.0261 4.93179 11.4497 4.05943C10.8733 3.18706 10.0532 2.50336 9.09137 2.09334C8.12954 1.68332 7.0684 1.56506 6.03989 1.75327C5.01138 1.94148 4.06089 2.42786 3.30659 3.15193L2.64192 1.95526ZM11.3579 12.0446C10.1482 13.0928 8.60059 13.6688 6.99992 13.6666C3.31792 13.6666 0.333252 10.6819 0.333252 6.99993C0.333252 5.57593 0.779919 4.25593 1.53992 3.17326L3.66659 6.99993H1.66659C1.6665 8.04551 1.97375 9.06806 2.55014 9.94042C3.12653 10.8128 3.94663 11.4965 4.90847 11.9065C5.8703 12.3165 6.93144 12.4348 7.95995 12.2466C8.98845 12.0584 9.93895 11.572 10.6933 10.8479L11.3579 12.0446Z" fill="#0A0903"/>
</svg>
