<svg width="22" height="22" viewBox="0 0 22 22" fill="none" xmlns="http://www.w3.org/2000/svg">
<path d="M15.9497 15.9497C14.5252 17.0355 12.7906 17.6371 10.9997 17.6664C5.16634 17.6664 1.83301 10.9997 1.83301 10.9997C2.86958 9.06794 4.30729 7.3802 6.04967 6.0497M9.24967 4.53303C9.82328 4.39876 10.4106 4.33164 10.9997 4.33303C16.833 4.33303 20.1663 10.9997 20.1663 10.9997C19.6605 11.946 19.0572 12.837 18.3663 13.658M12.7663 12.7664C12.5375 13.012 12.2615 13.209 11.9548 13.3456C11.6481 13.4823 11.3171 13.5557 10.9814 13.5617C10.6457 13.5676 10.3123 13.5058 10.001 13.3801C9.68972 13.2544 9.40694 13.0672 9.16955 12.8298C8.93215 12.5924 8.745 12.3096 8.61927 11.9984C8.49353 11.6871 8.43178 11.3536 8.4377 11.018C8.44363 10.6823 8.5171 10.3512 8.65374 10.0446C8.79038 9.7379 8.98739 9.4619 9.23301 9.23303" stroke="black" stroke-width="1.5" stroke-linecap="round" stroke-linejoin="round"/>
<path d="M1.83301 1.83301L20.1663 20.1663" stroke="black" stroke-width="2" stroke-linecap="round" stroke-linejoin="round"/>
</svg>
