<svg width="14" height="16" viewBox="0 0 14 16" fill="none" xmlns="http://www.w3.org/2000/svg">
<path d="M12.9999 4.99988L8.49995 1.05488C8.08743 0.685916 7.5534 0.481934 6.99995 0.481934C6.4465 0.481934 5.91247 0.685916 5.49995 1.05488L0.999949 4.99988C0.761725 5.21294 0.571624 5.4743 0.442303 5.76657C0.312982 6.05883 0.247409 6.37529 0.249949 6.69488V13.2499C0.249949 13.8466 0.487002 14.4189 0.908959 14.8409C1.33092 15.2628 1.90321 15.4999 2.49995 15.4999H11.4999C12.0967 15.4999 12.669 15.2628 13.0909 14.8409C13.5129 14.4189 13.7499 13.8466 13.7499 13.2499V6.68738C13.7514 6.36905 13.6853 6.05404 13.556 5.76314C13.4268 5.47225 13.2372 5.2121 12.9999 4.99988ZM8.49995 13.9999H5.49995V10.2499C5.49995 10.051 5.57897 9.86021 5.71962 9.71955C5.86027 9.5789 6.05104 9.49988 6.24995 9.49988H7.74995C7.94886 9.49988 8.13963 9.5789 8.28028 9.71955C8.42093 9.86021 8.49995 10.051 8.49995 10.2499V13.9999ZM12.2499 13.2499C12.2499 13.4488 12.1709 13.6396 12.0303 13.7802C11.8896 13.9209 11.6989 13.9999 11.4999 13.9999H9.99995V10.2499C9.99995 9.65314 9.7629 9.08085 9.34094 8.65889C8.91898 8.23693 8.34669 7.99988 7.74995 7.99988H6.24995C5.65321 7.99988 5.08092 8.23693 4.65896 8.65889C4.237 9.08085 3.99995 9.65314 3.99995 10.2499V13.9999H2.49995C2.30104 13.9999 2.11027 13.9209 1.96962 13.7802C1.82897 13.6396 1.74995 13.4488 1.74995 13.2499V6.68738C1.75008 6.58089 1.77289 6.47566 1.81686 6.37867C1.86083 6.28168 1.92495 6.19517 2.00495 6.12488L6.50495 2.18738C6.64182 2.06714 6.81777 2.00083 6.99995 2.00083C7.18213 2.00083 7.35808 2.06714 7.49495 2.18738L11.9949 6.12488C12.075 6.19517 12.1391 6.28168 12.183 6.37867C12.227 6.47566 12.2498 6.58089 12.2499 6.68738V13.2499Z" fill="#080803"/>
</svg>
