<svg width="16" height="16" viewBox="0 0 16 16" fill="none" xmlns="http://www.w3.org/2000/svg">
<path d="M14.75 2.30739L15.2824 1.78239C15.4237 1.64117 15.503 1.44962 15.503 1.24989C15.503 1.05017 15.4237 0.858623 15.2824 0.717395C15.1412 0.576167 14.9497 0.496826 14.75 0.496826C14.5502 0.496826 14.3587 0.576167 14.2175 0.717395L13.1674 1.77489L11.0449 3.8974L6.31245 8.62239C5.53698 8.11077 4.5992 7.90522 3.68083 8.04556C2.76245 8.18591 1.92886 8.66216 1.34159 9.38203C0.754316 10.1019 0.455167 11.0142 0.502108 11.942C0.549049 12.8699 0.938739 13.7472 1.59567 14.4042C2.2526 15.0611 3.12999 15.4508 4.05784 15.4977C4.98569 15.5447 5.89794 15.2455 6.61781 14.6583C7.33769 14.071 7.81394 13.2374 7.95428 12.319C8.09463 11.4006 7.88907 10.4629 7.37745 9.6874L11.57 5.48739L13.16 7.08489C13.2299 7.15433 13.3128 7.20931 13.404 7.2467C13.4952 7.28409 13.5928 7.30316 13.6914 7.30281C13.7899 7.30246 13.8874 7.28271 13.9783 7.24467C14.0692 7.20664 14.1518 7.15107 14.2212 7.08114C14.2906 7.01122 14.3456 6.9283 14.383 6.83712C14.4204 6.74594 14.4395 6.64829 14.4391 6.54974C14.4388 6.4512 14.419 6.35368 14.381 6.26277C14.3429 6.17186 14.2874 6.08933 14.2175 6.01989L12.6275 4.42989L13.6925 3.3724L14.2175 3.8974C14.2869 3.96732 14.3694 4.02289 14.4603 4.06093C14.5512 4.09896 14.6488 4.11871 14.7473 4.11906C14.8458 4.11941 14.9435 4.10034 15.0347 4.06295C15.1259 4.02556 15.2088 3.97058 15.2787 3.90114C15.3486 3.83171 15.4042 3.74918 15.4422 3.65827C15.4803 3.56736 15.5 3.46984 15.5004 3.3713C15.5007 3.27275 15.4817 3.1751 15.4443 3.08392C15.4069 2.99274 15.3519 2.90982 15.2824 2.83989L14.75 2.30739ZM4.24995 13.9999C3.80494 13.9999 3.36993 13.8679 2.99992 13.6207C2.62991 13.3735 2.34152 13.0221 2.17122 12.6109C2.00092 12.1998 1.95637 11.7474 2.04318 11.3109C2.13 10.8745 2.34429 10.4736 2.65896 10.1589C2.97363 9.84424 3.37454 9.62994 3.811 9.54313C4.24745 9.45631 4.69985 9.50087 5.11099 9.67117C5.52212 9.84146 5.87352 10.1299 6.12076 10.4999C6.36799 10.8699 6.49995 11.3049 6.49995 11.7499C6.49995 12.3466 6.2629 12.9189 5.84094 13.3409C5.41898 13.7628 4.84669 13.9999 4.24995 13.9999Z" fill="#080803"/>
</svg>
