<svg width="16" height="16" viewBox="0 0 16 16" fill="none" xmlns="http://www.w3.org/2000/svg">
<path d="M8.00004 0.5C6.54539 0.502764 5.12295 0.928483 3.90596 1.7253C2.68897 2.52212 1.72996 3.65566 1.14574 4.98783C0.561527 6.32 0.377319 7.79331 0.615556 9.22832C0.853794 10.6633 1.50419 11.9981 2.48754 13.07C3.18985 13.8313 4.04224 14.4389 4.99099 14.8544C5.93974 15.27 6.96427 15.4845 8.00004 15.4845C9.0358 15.4845 10.0603 15.27 11.0091 14.8544C11.9578 14.4389 12.8102 13.8313 13.5125 13.07C14.4959 11.9981 15.1463 10.6633 15.3845 9.22832C15.6228 7.79331 15.4385 6.32 14.8543 4.98783C14.2701 3.65566 13.3111 2.52212 12.0941 1.7253C10.8771 0.928483 9.45468 0.502764 8.00004 0.5ZM8.00004 14C6.44639 13.9976 4.95422 13.3927 3.83754 12.3125C4.17657 11.4872 4.75331 10.7812 5.49448 10.2844C6.23564 9.78761 7.10777 9.52235 8.00004 9.52235C8.8923 9.52235 9.76443 9.78761 10.5056 10.2844C11.2468 10.7812 11.8235 11.4872 12.1625 12.3125C11.0458 13.3927 9.55369 13.9976 8.00004 14ZM6.50004 6.5C6.50004 6.20333 6.58801 5.91332 6.75283 5.66665C6.91765 5.41997 7.15192 5.22771 7.42601 5.11418C7.7001 5.00065 8.0017 4.97094 8.29267 5.02882C8.58364 5.0867 8.85092 5.22956 9.0607 5.43934C9.27048 5.64912 9.41334 5.91639 9.47121 6.20737C9.52909 6.49834 9.49939 6.79994 9.38586 7.07403C9.27232 7.34811 9.08007 7.58238 8.83339 7.7472C8.58672 7.91203 8.29671 8 8.00004 8C7.60221 8 7.22068 7.84197 6.93938 7.56066C6.65807 7.27936 6.50004 6.89783 6.50004 6.5ZM13.1825 11C12.5124 9.85382 11.4811 8.96227 10.25 8.465C10.6319 8.03199 10.8807 7.49799 10.9666 6.92708C11.0525 6.35616 10.9719 5.77258 10.7344 5.24637C10.4968 4.72016 10.1125 4.27367 9.62747 3.96047C9.14246 3.64728 8.57738 3.48069 8.00004 3.48069C7.42269 3.48069 6.85761 3.64728 6.37261 3.96047C5.8876 4.27367 5.50326 4.72016 5.26572 5.24637C5.02818 5.77258 4.94753 6.35616 5.03343 6.92708C5.11934 7.49799 5.36816 8.03199 5.75004 8.465C4.51899 8.96227 3.48764 9.85382 2.81754 11C2.28349 10.0903 2.00133 9.05485 2.00004 8C2.00004 6.4087 2.63218 4.88258 3.7574 3.75736C4.88261 2.63214 6.40874 2 8.00004 2C9.59134 2 11.1175 2.63214 12.2427 3.75736C13.3679 4.88258 14 6.4087 14 8C13.9987 9.05485 13.7166 10.0903 13.1825 11Z" fill="#080803"/>
</svg>
