<svg width="14" height="18" viewBox="0 0 14 18" fill="none" xmlns="http://www.w3.org/2000/svg">
<path d="M13.6667 6.45002C13.658 6.37347 13.6413 6.29805 13.6167 6.22502V6.15002C13.5766 6.06434 13.5232 5.98557 13.4584 5.91669L8.45837 0.916687C8.38949 0.851867 8.31072 0.798421 8.22504 0.758354H8.15004L7.88337 0.666687H2.83337C2.17033 0.666687 1.53445 0.930079 1.06561 1.39892C0.596766 1.86776 0.333374 2.50365 0.333374 3.16669V14.8334C0.333374 15.4964 0.596766 16.1323 1.06561 16.6011C1.53445 17.07 2.17033 17.3334 2.83337 17.3334H11.1667C11.8297 17.3334 12.4656 17.07 12.9345 16.6011C13.4033 16.1323 13.6667 15.4964 13.6667 14.8334V6.50002C13.6667 6.50002 13.6667 6.50002 13.6667 6.45002ZM8.66671 3.50835L10.825 5.66669H8.66671V3.50835ZM12 14.8334C12 15.0544 11.9122 15.2663 11.756 15.4226C11.5997 15.5789 11.3877 15.6667 11.1667 15.6667H2.83337C2.61236 15.6667 2.4004 15.5789 2.24412 15.4226C2.08784 15.2663 2.00004 15.0544 2.00004 14.8334V3.16669C2.00004 2.94567 2.08784 2.73371 2.24412 2.57743C2.4004 2.42115 2.61236 2.33335 2.83337 2.33335H7.00004V6.50002C7.00004 6.72103 7.08784 6.933 7.24412 7.08928C7.4004 7.24556 7.61236 7.33335 7.83337 7.33335H12V14.8334Z" fill="#008037"/>
</svg>
