<svg width="14" height="14" viewBox="0 0 14 14" fill="none" xmlns="http://www.w3.org/2000/svg">
<path d="M10.6099 9.76056L10.3284 10.1115L10.6478 10.4284L13.1162 12.8768C13.1447 12.9075 13.1606 12.948 13.1606 12.9901C13.1606 13.0322 13.1446 13.0727 13.116 13.1036C13.101 13.1181 13.0834 13.1297 13.064 13.1378C13.0437 13.1462 13.0219 13.1506 12.9999 13.1506C12.9779 13.1506 12.9562 13.1462 12.9358 13.1378C12.9155 13.1293 12.8971 13.1169 12.8816 13.1013L12.8802 13.0998L10.4268 10.6465L10.11 10.3297L9.76044 10.61C8.66314 11.4901 7.27035 11.9163 5.86846 11.8009C4.46657 11.6856 3.16214 11.0376 2.22339 9.99005C1.28464 8.94251 0.78292 7.57511 0.821396 6.16902C0.859872 4.76292 1.43562 3.425 2.43025 2.43037C3.42488 1.43574 4.7628 0.859994 6.16889 0.821518C7.57499 0.783042 8.94239 1.28476 9.98993 2.22351C11.0375 3.16226 11.6855 4.46669 11.8008 5.86858C11.9161 7.27047 11.4899 8.66326 10.6099 9.76056ZM3.46282 10.6293C4.31248 11.197 5.3114 11.5001 6.33327 11.5001C7.70355 11.5001 9.01772 10.9557 9.98665 9.98678C10.9556 9.01784 11.4999 7.70368 11.4999 6.33339C11.4999 5.31152 11.1969 4.3126 10.6292 3.46294C10.0615 2.61329 9.25455 1.95107 8.31047 1.56001C7.36638 1.16896 6.32754 1.06664 5.3253 1.266C4.32307 1.46536 3.40246 1.95744 2.67988 2.68001C1.95731 3.40258 1.46524 4.32319 1.26588 5.32543C1.06652 6.32766 1.16884 7.3665 1.55989 8.31059C1.95094 9.25467 2.61317 10.0616 3.46282 10.6293Z" fill="black" stroke="white"/>
</svg>
